<svg width="247" height="51" xmlns="http://www.w3.org/2000/svg" xmlns:xlink="http://www.w3.org/1999/xlink"><defs><path id="a" d="M0 28h247V0H0z"/></defs><g fill="none" fill-rule="evenodd"><path d="M34.611 50l-1.859-3.553c1.012-.209 1.705-.957 1.705-2.101 0-1.353-.957-2.178-2.321-2.178h-3.003V50h.836v-3.476h1.881L33.632 50h.979zm-.99-5.643c0 .957-.649 1.43-1.562 1.43h-2.09v-2.871h2.09c.913 0 1.562.484 1.562 1.441zm9.741 2.223v-.992c-.007-1.327-.076-2.013-.736-2.672a2.773 2.773 0 00-2.002-.814c-.78 0-1.474.286-2.002.814-.62.62-.718 1.265-.734 2.444l-.002 1.22c.007 1.327.077 2.013.736 2.672a2.773 2.773 0 002.002.814c.781 0 1.474-.286 2.002-.814.66-.66.73-1.345.736-2.672zm-.837-.978v.964c-.014 1.268-.105 1.738-.548 2.191a1.895 1.895 0 01-1.353.561 1.895 1.895 0 01-1.353-.561c-.469-.48-.543-.978-.55-2.423l.003-.732c.014-1.268.104-1.738.547-2.191a1.895 1.895 0 011.353-.561c.517 0 1.012.209 1.353.561.443.453.534.923.548 2.191zm9.8 2.132h-.836c-.21.957-.902 1.584-1.881 1.584a1.885 1.885 0 01-1.353-.55c-.443-.453-.534-.932-.548-2.202v-.964c.014-1.27.105-1.75.548-2.202.34-.352.836-.55 1.353-.55.979 0 1.65.627 1.859 1.584h.858c-.264-1.474-1.31-2.332-2.717-2.332-.77 0-1.474.286-2.002.814-.66.66-.73 1.345-.736 2.672v.992c.007 1.327.076 2.013.736 2.672a2.792 2.792 0 002.002.814c1.397 0 2.464-.858 2.717-2.332zM61.869 50l-2.816-4.807 2.464-3.025h-1.023l-3.652 4.499v-4.499h-.836V50h.836v-2.189l1.65-1.98L60.879 50h.99zm3.956 0v-7.832h-.836V50h.836zm8.665-7.084v-.748h-5.368v.748h2.266V50h.836v-7.084h2.266zm8.015 4.928c0-.649-.231-1.188-.66-1.551-.297-.257-.62-.408-1.22-.516l-1.068-.166c-.407-.066-.814-.22-1.056-.429-.242-.209-.352-.517-.352-.902 0-.869.605-1.452 1.65-1.452.825 0 1.342.231 1.826.671l.539-.539c-.671-.605-1.331-.858-2.332-.858-1.551 0-2.508.88-2.508 2.211 0 .627.198 1.111.594 1.463.341.297.825.495 1.441.594l.913.143c.572.088.77.154 1.023.374.253.22.374.572.374.979 0 .913-.704 1.452-1.848 1.452-.88 0-1.485-.209-2.134-.858l-.572.572c.737.737 1.507 1.034 2.684 1.034 1.628 0 2.706-.847 2.706-2.222zm8.741-.11h-.836c-.209.957-.902 1.584-1.88 1.584a1.885 1.885 0 01-1.354-.55c-.469-.48-.543-.988-.55-2.434l.003-.732c.014-1.27.104-1.75.547-2.202.341-.352.836-.55 1.353-.55.98 0 1.65.627 1.86 1.584h.857c-.264-1.474-1.309-2.332-2.717-2.332-.77 0-1.474.286-2.002.814-.62.62-.718 1.265-.734 2.444l-.002 1.22c.007 1.327.077 2.013.736 2.672a2.792 2.792 0 002.002.814c1.397 0 2.464-.858 2.717-2.332zM95.764 50v-7.832h-.836V50h.836zm8.961 0v-.748h-4.026v-2.827h3.432v-.748h-3.432v-2.761h4.026v-.748h-4.862V50h4.862zm9.357 0v-7.832h-.836v6.259l-4.158-6.259h-.792V50h.836v-6.281L113.29 50h.792zm9.259-2.266h-.836c-.21.957-.902 1.584-1.881 1.584a1.885 1.885 0 01-1.353-.55c-.443-.453-.534-.932-.548-2.202v-.964c.014-1.27.105-1.75.548-2.202.34-.352.836-.55 1.353-.55.979 0 1.65.627 1.859 1.584h.858c-.264-1.474-1.31-2.332-2.717-2.332-.77 0-1.474.286-2.002.814-.66.66-.73 1.345-.736 2.672v.992c.007 1.327.076 2.013.736 2.672a2.792 2.792 0 002.002.814c1.397 0 2.464-.858 2.717-2.332zM131.884 50v-.748h-4.026v-2.827h3.432v-.748h-3.432v-2.761h4.026v-.748h-4.862V50h4.862zm9.027 0l-2.87-7.832h-.705L134.454 50h.891l.627-1.771h3.421L140.02 50h.891zm-1.76-2.497h-2.926l1.474-4.136 1.452 4.136zm9.952-.363v-1.243h-2.761v.737h1.925v.594c0 .605-.121 1.034-.44 1.419-.363.44-.913.671-1.485.671a1.885 1.885 0 01-1.353-.55c-.443-.453-.534-.932-.548-2.202v-.964c.014-1.268.105-1.738.548-2.191a1.895 1.895 0 011.353-.561c.979 0 1.683.605 1.903 1.595h.836c-.231-1.375-1.243-2.343-2.74-2.343-.78 0-1.473.286-2.001.814-.66.66-.73 1.345-.736 2.672v.992c.007 1.327.076 2.013.736 2.672a2.792 2.792 0 002.002.814c.803 0 1.54-.308 2.09-.902.484-.517.67-1.122.67-2.024zm8.642 2.86v-.748h-4.026v-2.827h3.432v-.748h-3.432v-2.761h4.026v-.748h-4.862V50h4.862zm9.357 0v-7.832h-.836v6.259l-4.158-6.259h-.792V50h.836v-6.281L166.31 50h.792zm9.259-2.266h-.836c-.21.957-.902 1.584-1.881 1.584a1.885 1.885 0 01-1.353-.55c-.443-.453-.534-.932-.548-2.202v-.964c.014-1.27.105-1.75.548-2.202.34-.352.836-.55 1.353-.55.979 0 1.65.627 1.859 1.584h.858c-.264-1.474-1.31-2.332-2.717-2.332-.77 0-1.474.286-2.002.814-.66.66-.73 1.345-.736 2.672v.992c.007 1.327.076 2.013.736 2.672a2.792 2.792 0 002.002.814c1.397 0 2.464-.858 2.717-2.332zm8.004-5.566h-.902l-1.826 3.751-1.848-3.751h-.902l2.332 4.598V50h.836v-3.234l2.31-4.598zM187.408 50v-1.034h-1.034V50h1.034zm9.094-2.266h-.836c-.21.957-.902 1.584-1.881 1.584a1.885 1.885 0 01-1.353-.55c-.443-.453-.534-.932-.548-2.202v-.964c.014-1.27.105-1.75.548-2.202.34-.352.836-.55 1.353-.55.979 0 1.65.627 1.859 1.584h.858c-.264-1.474-1.31-2.332-2.717-2.332-.77 0-1.474.286-2.002.814-.66.66-.73 1.345-.736 2.672v.992c.007 1.327.076 2.013.736 2.672a2.792 2.792 0 002.002.814c1.397 0 2.464-.858 2.717-2.332zm8.861-1.154v-.992c-.007-1.327-.077-2.013-.736-2.672a2.773 2.773 0 00-2.002-.814c-.781 0-1.474.286-2.002.814-.66.66-.729 1.345-.736 2.672v.992c.007 1.327.077 2.013.736 2.672a2.773 2.773 0 002.002.814c.781 0 1.474-.286 2.002-.814.66-.66.729-1.345.736-2.672zm-.835-.496l-.006.698c-.022 1.107-.127 1.549-.544 1.975a1.895 1.895 0 01-1.353.561 1.895 1.895 0 01-1.353-.561c-.443-.453-.534-.923-.548-2.191l-.002-.482c0-1.639.055-2.167.55-2.673a1.895 1.895 0 011.353-.561c.517 0 1.012.209 1.353.561.495.506.55 1.034.55 2.673zM215.876 50h-.836v-5.951l-2.145 4.719h-.715l-2.178-4.719V50h-.836v-7.832h.836l2.552 5.555 2.486-5.555h.836V50z" fill="#AAADB0" fill-rule="nonzero"/><mask id="b" fill="#fff"><use xlink:href="#a"/></mask><path d="M72.799 7.719l-5.46 6.582V.371h-6.79v27.397h6.79v-6.234l1.324-1.346 4.637 7.58h8.406L73.3 15.647l7.576-7.928h-8.077zm32.456 20.049c-4.928 0-6.914-3.27-6.914-6.118v-8.927h-2.029V7.717h2.029V1.791h6.79v5.926h3.519v5.006h-3.52v8.466c0 .808.456 1.27 1.367 1.27h2.153v5.309h-3.395zm-20.158 0h6.791V7.734h-6.79v20.034zm0-22.958h6.791V0h-6.79v4.81zM49.904 28c-3.85 0-10.02-1.54-10.02-10.582 0-9.045 6.17-10.582 10.02-10.582 3.105 0 5.507.961 7.327 2.654l-4.595 4.272c-.87-.809-1.617-1.232-2.732-1.232-.911 0-1.533.269-2.111.808-.788.77-1.12 2.116-1.12 4.08 0 1.962.332 3.308 1.12 4.08.578.537 1.2.807 2.11.807 1.116 0 1.863-.423 2.733-1.233l4.595 4.273C55.41 27.039 53.009 28 49.904 28zM29.029 13.108c-.415-.385-.995-.578-1.824-.578-.826 0-1.405.193-1.819.578-.872.808-.995 2.268-.995 4.31 0 2.038.123 3.5.995 4.309.414.386.993.578 1.82.578.828 0 1.408-.192 1.823-.578.868-.809.994-2.27.994-4.31 0-2.04-.126-3.501-.994-4.31zm5.341 12.237C33.045 26.652 30.807 28 27.205 28c-3.6 0-5.836-1.348-7.162-2.655-1.864-1.886-2.443-3.848-2.443-7.927 0-4.041.579-6.043 2.443-7.928 1.326-1.308 3.561-2.654 7.162-2.654 3.602 0 5.84 1.346 7.165 2.654 1.862 1.885 2.441 3.887 2.441 7.928 0 4.08-.579 6.041-2.44 7.927zM11.965 13.607c-.661-.614-1.282-1.077-2.443-1.077-.911 0-2.733.501-2.733 2.846v12.392H0V7.066h6.623V8.76c.995-.924 2.941-1.923 5.26-1.923 2.194 0 3.685.5 5.217 1.923l-5.135 4.848zm229.238.117c-.58-1.194-1.78-2.078-3.601-2.078-1.822 0-3.024.884-3.604 2.078-.33.73-.456 1.27-.496 2.155h8.198c-.043-.886-.165-1.425-.497-2.155zm-7.701 5.58c0 2.578 1.7 4.464 4.721 4.464 2.36 0 3.518-.618 4.886-1.886l3.27 2.961c-2.195 2.04-4.307 3.157-8.199 3.157-5.09 0-9.977-2.156-9.977-10.275 0-6.541 3.807-10.235 9.399-10.235 6.002 0 9.398 4.078 9.398 9.581v2.232h-13.498zM219.536 28c-4.305 0-9.646-2.156-9.646-10.275 0-8.12 5.34-10.235 9.646-10.235 2.98 0 5.216.846 7.12 2.693l-3.641 3.386c-1.118-1.115-2.072-1.577-3.479-1.577-1.284 0-2.277.424-3.066 1.307-.827.962-1.198 2.31-1.198 4.426 0 2.118.371 3.502 1.198 4.463.79.886 1.782 1.31 3.066 1.31 1.407 0 2.36-.462 3.479-1.58l3.641 3.349c-1.904 1.847-4.14 2.733-7.12 2.733zm-18.935-.232V15.647c0-2.733-1.864-3.655-3.562-3.655-1.699 0-3.602.922-3.602 3.655v12.12h-5.38V7.72h5.255v1.848c1.409-1.386 3.396-2.078 5.384-2.078 2.153 0 3.891.653 5.09 1.769 1.74 1.616 2.196 3.502 2.196 5.696v12.813h-5.38zm-22.497-14.044c-.58-1.194-1.78-2.078-3.602-2.078-1.82 0-3.022.884-3.602 2.078-.33.73-.455 1.27-.496 2.155h8.198c-.043-.886-.165-1.425-.498-2.155zm-7.7 5.58c0 2.578 1.698 4.464 4.72 4.464 2.36 0 3.519-.618 4.887-1.886l3.27 2.961c-2.195 2.04-4.308 3.157-8.199 3.157-5.093 0-9.979-2.156-9.979-10.275 0-6.541 3.81-10.235 9.4-10.235 6.002 0 9.399 4.078 9.399 9.581v2.232h-13.498zm-14.793 8.464h5.382V7.72h-5.382v20.048zm-.082-23.473h5.51V.217h-5.51v4.078zM144.304 28c-4.305 0-9.647-2.156-9.647-10.275 0-8.12 5.342-10.235 9.647-10.235 2.98 0 5.216.846 7.121 2.693l-3.642 3.386c-1.118-1.115-2.07-1.577-3.479-1.577-1.284 0-2.277.424-3.063 1.307-.828.962-1.201 2.31-1.201 4.426 0 2.118.373 3.502 1.201 4.463.786.886 1.78 1.31 3.063 1.31 1.41 0 2.36-.462 3.48-1.58l3.641 3.349c-1.905 1.847-4.14 2.733-7.12 2.733zm-21.417 0c-3.395 0-6.458-.347-9.192-2.886l3.52-3.272c1.78 1.655 4.099 1.886 5.756 1.886 1.86 0 3.807-.578 3.807-2.078 0-1-.58-1.693-2.277-1.847l-3.395-.307c-3.89-.347-6.293-1.924-6.293-5.618 0-4.156 3.933-6.388 8.322-6.388 3.353 0 6.168.537 8.24 2.346l-3.313 3.117c-1.243-1.039-3.147-1.346-5.01-1.346-2.153 0-3.064.923-3.064 1.924 0 .73.332 1.578 2.236 1.73l3.395.308c4.264.387 6.418 2.503 6.418 5.888 0 4.425-4.057 6.543-9.15 6.543z" fill="#FFF" mask="url(#b)"/></g></svg>